<?xml version="1.0" encoding="utf-8"?>
<!-- Generator: Adobe Illustrator 18.1.1, SVG Export Plug-In . SVG Version: 6.00 Build 0)  -->
<svg version="1.1" id="Layer_1" xmlns="http://www.w3.org/2000/svg" xmlns:xlink="http://www.w3.org/1999/xlink" x="0px" y="0px"
	 viewBox="0 0 293.2 800.1" enable-background="new 0 0 293.2 800.1" xml:space="preserve">
<rect x="0" fill="#272F38" width="293.2" height="90"/>
<g>
	<linearGradient id="SVGID_1_" gradientUnits="userSpaceOnUse" x1="35.8023" y1="293.9388" x2="35.8023" y2="344.1668">
		<stop  offset="0" style="stop-color:#64FFDA"/>
		<stop  offset="1" style="stop-color:#0CB8FF"/>
	</linearGradient>
	<path fill="url(#SVGID_1_)" d="M36.6,328.5c-0.3-0.1-0.5-0.1-0.8-0.1c-1.2,0-2.2,0.7-2.5,1.9c-0.4,1.4,0.3,2.9,1.7,3.3
		c0.3,0.1,0.5,0.1,0.8,0.1c1.2,0,2.2-0.7,2.5-1.9C38.8,330.5,38,329,36.6,328.5z"/>
	<linearGradient id="SVGID_2_" gradientUnits="userSpaceOnUse" x1="35.8022" y1="293.9388" x2="35.8022" y2="344.1668">
		<stop  offset="0" style="stop-color:#64FFDA"/>
		<stop  offset="1" style="stop-color:#0CB8FF"/>
	</linearGradient>
	<path fill="url(#SVGID_2_)" d="M35.8,293.9c-13.8,0-25,11.2-25,25c0,13.8,11.2,25,25,25c13.8,0,25-11.2,25-25
		C60.8,305.1,49.6,293.9,35.8,293.9z M44.4,310l-4.9,15.6c2.4,1.6,3.5,4.6,2.6,7.5c-0.9,2.8-3.4,4.6-6.3,4.6c-0.7,0-1.3-0.1-2-0.3
		c-3.5-1.1-5.4-4.8-4.3-8.3c0.9-2.7,3.3-4.6,6.2-4.6l4.9-15.6c0.3-1,1.4-1.6,2.5-1.3C44.2,307.8,44.7,308.9,44.4,310z M53.1,320.9
		c-1.1,0-2-0.9-2-2c0-8.4-6.9-15.3-15.3-15.3s-15.3,6.9-15.3,15.3c0,1.1-0.9,2-2,2s-2-0.9-2-2c0-10.6,8.7-19.3,19.3-19.3
		s19.3,8.7,19.3,19.3C55.1,320,54.2,320.9,53.1,320.9z"/>
</g>
<path fill="#FFFFFF" d="M35.8,485.3c-4.4,0-8,3.7-8,8.3c0,3.5,4.7,11.5,6.9,15.1c0.2,0.4,0.7,0.6,1.1,0.6c0.5,0,0.9-0.2,1.1-0.6
	c2.2-3.6,6.9-11.6,6.9-15.1C43.8,489,40.2,485.3,35.8,485.3z M35.8,497.6c-2,0-3.6-1.7-3.6-3.7c0-2,1.6-3.7,3.6-3.7
	c2,0,3.6,1.7,3.6,3.7C39.4,496,37.8,497.6,35.8,497.6z"/>
<path fill="#FFFFFF" d="M272.9,450.6c-2-0.1-3.5,1.7-3.6,3.6c0.1,1.3,0.7,2.3,1.5,2.8c-0.8,1.2-1.6,2.4-2.4,3.6
	c-0.5-0.2-1-0.4-1.5-0.4c-0.7,0-1.3,0.2-1.9,0.6c-0.9-1-1.8-2.1-2.8-3.1c0.2-0.3,0.3-0.7,0.3-1.1c0.1-1.4-1.2-2.4-2.5-2.4
	c-1.4-0.1-2.4,1.2-2.5,2.4c0,0.4,0.1,0.7,0.3,1c-0.8,0.9-1.5,1.7-2.3,2.6c-0.3-0.2-0.7-0.4-1.2-0.4c-1.2-0.1-2,1-2.1,2.1
	c-0.1,1.2,1,2,2.1,2.1c1.2,0.1,2.1-1,2.1-2.1c0-0.4-0.1-0.8-0.3-1.1c0.6-0.7,1.2-1.3,1.7-2c0.2-0.2,0.3-0.4,0.5-0.5
	c0.4,0.4,1,0.7,1.7,0.7c0.7,0,1.2-0.2,1.7-0.7c0.9,1,1.8,2,2.7,3c-0.4,0.5-0.6,1.2-0.7,1.9c0.1,1.8,1.4,3,3.1,3.1
	c1.8,0.1,3-1.5,3.1-3.1c0.1-0.9-0.3-1.7-1-2.2c0.8-1.2,1.6-2.5,2.5-3.7c2,0.7,4.7-0.3,4.8-3.2C276.5,452.1,274.7,450.7,272.9,450.6
	L272.9,450.6z M272.9,450.6"/>
<path fill="#FFFFFF" d="M200.1,496.3h-1.7c-0.4-4.4-3.9-7.9-8.3-8.4v-1.7c0-0.6-0.4-1-1-1c-0.6,0-1,0.4-1,1v1.7
	c-4.4,0.5-7.8,4-8.3,8.4h-1.7c-0.6,0-1,0.4-1,1s0.4,1,1,1h1.8c0.5,4.3,4,7.7,8.3,8.2v1.7c0,0.6,0.4,1,1,1c0.6,0,1-0.4,1-1v-1.7
	c4.3-0.5,7.8-3.9,8.3-8.2h1.7c0.6,0,1-0.4,1-1S200.6,496.3,200.1,496.3z M191.3,497.3c0,0.6,0.4,1,1,1h4.1c-0.5,3.2-3.1,5.8-6.3,6.2
	v-4c0-0.6-0.4-1-1-1s-1,0.4-1,1v4c-3.2-0.4-5.8-3-6.2-6.2h4c0.6,0,1-0.4,1-1c0-0.6-0.4-1-1-1h-4c0.4-3.3,3-5.9,6.3-6.3v4.1
	c0,0.6,0.4,1,1,1s1-0.4,1-1V490c3.3,0.4,5.9,3.1,6.3,6.3l-4.1,0C191.7,496.3,191.3,496.8,191.3,497.3z"/>
<g>
	<path fill="#FFFFFF" d="M198.1,565.3h-15c-1.7,0-3,1.3-3,2.9v5.3l3-2.3v-2.9h15v10.2h-3.4l-3.7,2.9h7.1c1.7,0,3-1.3,3-2.9v-10.2
		C201.1,566.7,199.7,565.3,198.1,565.3L198.1,565.3z M198.1,565.3"/>
	<path fill="#FFFFFF" d="M177.1,578.5l7.5,5.8v-2.9c5.3-0.1,10.5-4.6,10.5-10.3c-2.5,2.4-5.5,4.6-10.5,4.4v-2.9L177.1,578.5z
		 M177.1,578.5"/>
</g>
<g>
	<path fill="#FFFFFF" d="M116.6,503.5c0,1.5-1.3,2.8-2.8,2.8c-1.6,0-2.8-1.3-2.8-2.8c0-1.5,1.3-2.8,2.8-2.8
		C115.3,500.7,116.6,501.9,116.6,503.5L116.6,503.5z M116.6,503.5"/>
	<g>
		<path fill="#FFFFFF" d="M120.5,496.8c0,0-0.1-0.1-0.1-0.1l-0.1-0.1c0,0,0,0-0.1-0.1c-3.6-3.3-9.2-3.2-12.6,0.3l-0.4,0.4l-0.6,0.6
			c-0.7,0.7-0.7,1.8,0,2.5c0.7,0.7,1.8,0.7,2.5,0l1-1c2.2-2.2,5.8-2.2,8,0l0.7,0.7c0.7,0.7,1.8,0.7,2.5,0c0.3-0.3,0.5-0.8,0.5-1.2
			c0-0.5-0.2-0.9-0.5-1.2L120.5,496.8z M120.5,496.8"/>
		<path fill="#FFFFFF" d="M125.3,493.3l-0.6-0.6c0,0,0,0,0,0l-0.5-0.5c-0.1-0.1-0.2-0.1-0.3-0.2c-5.9-5.2-14.9-5-20.6,0.5
			c0,0-0.1,0-0.1,0.1l-1.1,1c-0.6,0.6-0.6,1.6,0,2.3c0.6,0.6,1.6,0.6,2.3,0l1-1c0,0,0,0,0,0c4.6-4.5,12-4.5,16.6-0.1l0.8,0.8
			c0.6,0.6,1.6,0.6,2.3,0C125.9,494.9,125.9,493.9,125.3,493.3L125.3,493.3z M125.3,493.3"/>
	</g>
</g>
<g>
	<path fill="#FFFFFF" d="M213.1,233.4c0,6.4-5.2,11.6-11.7,11.6c-6.5,0-11.7-5.2-11.7-11.6c0-6.4,5.2-11.6,11.7-11.6
		C207.9,221.7,213.1,226.9,213.1,233.4L213.1,233.4z M213.1,233.4"/>
	<g>
		<path fill="#FFFFFF" d="M229.4,205.3c-0.2-0.2-0.3-0.4-0.5-0.5l-0.5-0.5c-0.1-0.1-0.2-0.2-0.3-0.2c-15.1-13.7-38.2-13.1-52.6,1.2
			l-1.7,1.7l-2.3,2.3c-2.8,2.8-2.8,7.5,0,10.3c2.9,2.9,7.5,2.9,10.3,0l4-4c9.2-9.1,24.1-9.1,33.3,0l2.9,2.8c2.8,2.8,7.4,2.8,10.3,0
			c1.4-1.4,2.1-3.2,2.1-5.1c0-1.9-0.8-3.7-2.1-5.1L229.4,205.3z M229.4,205.3"/>
		<path fill="#FFFFFF" d="M249.3,190.9l-2.4-2.4c0,0,0,0,0,0l-1.9-1.9c-0.3-0.3-0.7-0.6-1.1-0.9c-24.6-21.5-62.1-20.9-85.9,2
			c-0.1,0.1-0.2,0.2-0.3,0.3l-4.4,4.4c-2.6,2.6-2.6,6.8,0,9.4c2.6,2.6,6.8,2.6,9.4,0l4.4-4.4c0,0,0.1-0.1,0.1-0.1
			c19.3-18.6,49.9-18.7,69.3-0.4l3.4,3.4c2.6,2.6,6.8,2.6,9.5,0C251.8,197.7,251.9,193.5,249.3,190.9L249.3,190.9z M249.3,190.9"/>
	</g>
</g>
<g>
	<path fill-rule="evenodd" clip-rule="evenodd" fill="#FFFFFF" d="M133.7,309c0-0.9-0.3-1.7-0.9-2.3c0,0,0,0,0,0c0,0,0,0,0,0
		c-0.6-0.7-1.5-1.1-2.4-1.1H97.1c-1,0-1.8,0.4-2.4,1.1c0,0,0,0,0,0c0,0,0,0,0,0c-0.5,0.6-0.9,1.4-0.9,2.3v19.9
		c0,0.9,0.4,1.7,0.9,2.3c0,0,0,0,0,0c0,0,0,0,0,0c0.6,0.6,1.5,1,2.4,1h33.3c0.9,0,1.8-0.4,2.4-1c0,0,0,0,0,0c0,0,0,0,0,0
		c0.6-0.6,0.9-1.4,0.9-2.3V309z M120.6,317.9l11.5-9.7c0.1,0.2,0.2,0.5,0.2,0.8v19.9c0,0.3-0.1,0.5-0.1,0.7L120.6,317.9z M130.4,307
		c0.3,0,0.6,0.1,0.8,0.2l-17.5,14.7l-17.4-14.7c0.2-0.1,0.5-0.2,0.8-0.2H130.4z M95.3,329.6c-0.1-0.2-0.1-0.5-0.1-0.7V309
		c0-0.3,0.1-0.6,0.2-0.8l11.5,9.7L95.3,329.6z M97.1,330.9c-0.3,0-0.6-0.1-0.9-0.2l11.7-11.9l5.4,4.5c0.1,0.1,0.3,0.2,0.4,0.2
		c0.2,0,0.3-0.1,0.4-0.2l5.4-4.5l11.7,11.9c-0.3,0.1-0.6,0.2-0.9,0.2H97.1z M97.1,330.9"/>
</g>
<g>
	<path fill="#FFFFFF" d="M198.1,533.2C198.1,533.2,198.1,533.2,198.1,533.2c0-0.1,0-0.1,0-0.1c0,0,0-0.1-0.1-0.1l-8.6-8.8
		c0,0-0.1,0-0.1-0.1c0,0,0,0,0,0c0,0-0.1,0-0.1,0c0,0,0,0,0,0h-8.8c-0.2,0-0.3,0.1-0.3,0.3v23.3c0,0.2,0.1,0.3,0.3,0.3h17.4
		c0.2,0,0.3-0.1,0.3-0.3L198.1,533.2C198.1,533.2,198.1,533.2,198.1,533.2L198.1,533.2z M189.5,525.2l7.5,7.7h-7.5V525.2z
		 M180.7,547.4v-22.7h8.1v8.5c0,0.2,0.1,0.3,0.3,0.3h8.3v13.8H180.7z M180.7,547.4"/>
	<rect x="183.3" y="535.7" fill="#FFFFFF" width="1.1" height="0.7"/>
	<rect x="186.2" y="535.7" fill="#FFFFFF" width="8.7" height="0.7"/>
	<rect x="183.3" y="538.4" fill="#FFFFFF" width="1.1" height="0.7"/>
	<rect x="186.2" y="538.4" fill="#FFFFFF" width="8.7" height="0.7"/>
	<rect x="186.2" y="541" fill="#FFFFFF" width="8.7" height="0.7"/>
	<rect x="183.3" y="541" fill="#FFFFFF" width="1.1" height="0.7"/>
	<rect x="186.2" y="543.6" fill="#FFFFFF" width="8.7" height="0.7"/>
	<rect x="183.3" y="543.6" fill="#FFFFFF" width="1.1" height="0.7"/>
</g>
<g>
	<path fill-rule="evenodd" clip-rule="evenodd" fill="#FFFFFF" d="M35.8,530.1c-0.8,0-1.5,0.7-1.5,1.5c0,0.8,0.7,1.5,1.5,1.5
		s1.5-0.7,1.5-1.5C37.3,530.7,36.6,530.1,35.8,530.1L35.8,530.1z M35.8,534.6c-0.8,0-1.5,0.7-1.5,1.5l0,4.5c0,0.8,0.7,1.5,1.5,1.5
		s1.5-0.7,1.5-1.5l0-4.5C37.3,535.2,36.6,534.6,35.8,534.6L35.8,534.6z M35.7,524.1c-6.6,0-12,5.5-11.9,12.1c0,6.6,5.5,12,12.1,11.9
		c6.6,0,12-5.5,11.9-12.1C47.8,529.4,42.3,524,35.7,524.1L35.7,524.1z M35.9,545.8c-5.4,0-9.8-4.3-9.8-9.7c0-5.4,4.3-9.8,9.7-9.8
		c5.4,0,9.8,4.3,9.8,9.7C45.6,541.4,41.2,545.8,35.9,545.8L35.9,545.8z M35.9,545.8"/>
</g>
<g>
	<path fill="#FFFFFF" d="M41.6,573.3v-4.5c0-3.3-2.6-6-5.8-6c-3.2,0-5.8,2.7-5.8,6v4.5c-1.2,0-2.2,1-2.2,2.3v9c0,1.2,1,2.3,2.2,2.3
		h11.6c1.2,0,2.2-1,2.2-2.3v-9C43.8,574.4,42.8,573.3,41.6,573.3L41.6,573.3z M31.4,568.8c0-2.5,2-4.5,4.4-4.5c2.4,0,4.4,2,4.4,4.5
		v4.5h-8.7V568.8z M42.3,584.6c0,0.4-0.3,0.8-0.7,0.8H30c-0.4,0-0.7-0.3-0.7-0.8v-9c0-0.4,0.3-0.8,0.7-0.8h11.6
		c0.4,0,0.7,0.3,0.7,0.8V584.6z M36.5,579.5v-1.7c0-0.4-0.3-0.8-0.7-0.8c-0.4,0-0.7,0.3-0.7,0.8v1.7c-0.4,0.3-0.7,0.7-0.7,1.3
		c0,0.8,0.7,1.5,1.5,1.5c0.8,0,1.5-0.7,1.5-1.5C37.3,580.3,37,579.8,36.5,579.5L36.5,579.5z M36.5,579.5"/>
</g>
<g>
	<path fill="#FFFFFF" d="M274.1,316.4v-7.5c0-5.5-4.3-10-9.7-10c-5.3,0-9.7,4.5-9.7,10v7.5c-2,0-3.6,1.7-3.6,3.8v15
		c0,2.1,1.6,3.8,3.6,3.8h19.4c2,0,3.6-1.7,3.6-3.8v-15C277.7,318.1,276.1,316.4,274.1,316.4L274.1,316.4z M257.1,308.9
		c0-4.1,3.3-7.5,7.3-7.5c4,0,7.3,3.4,7.3,7.5v7.5h-14.5V308.9z M275.3,335.2c0,0.7-0.5,1.3-1.2,1.3h-19.4c-0.7,0-1.2-0.6-1.2-1.3
		v-15c0-0.7,0.5-1.3,1.2-1.3h19.4c0.7,0,1.2,0.6,1.2,1.3V335.2z M265.6,326.8v-2.8c0-0.7-0.5-1.3-1.2-1.3c-0.7,0-1.2,0.6-1.2,1.3
		v2.8c-0.7,0.4-1.2,1.2-1.2,2.2c0,1.4,1.1,2.5,2.4,2.5c1.3,0,2.4-1.1,2.4-2.5C266.8,328,266.3,327.2,265.6,326.8L265.6,326.8z
		 M265.6,326.8"/>
</g>
<path fill-rule="evenodd" clip-rule="evenodd" fill="#FFFFFF" d="M50.1,407.5l-6.5-6.5c0,0-0.1-0.1-0.1-0.1c1.3-1.9,2-4.3,2-6.8
	c0-6.8-5.5-12.3-12.3-12.3s-12.3,5.5-12.3,12.3c0,6.8,5.5,12.3,12.3,12.3c2.5,0,4.8-0.7,6.8-2c0,0,0.1,0.1,0.1,0.1l6.5,6.5
	c1,1,2.6,1,3.5,0C51,410.1,51,408.5,50.1,407.5L50.1,407.5z M33.1,402.2c-4.5,0-8.1-3.6-8.1-8.1c0-4.5,3.6-8.1,8.1-8.1
	s8.1,3.6,8.1,8.1C41.2,398.6,37.6,402.2,33.1,402.2L33.1,402.2z M33.1,402.2"/>
<g>
	<path fill="#FFFFFF" d="M266.3,487.1c0,1-0.8,1.9-1.9,1.9c-1,0-1.9-0.8-1.9-1.9c0-1,0.8-1.9,1.9-1.9
		C265.4,485.3,266.3,486.1,266.3,487.1L266.3,487.1z M266.3,487.1"/>
	<path fill="#FFFFFF" d="M266.3,507.4c0,1-0.8,1.9-1.9,1.9c-1,0-1.9-0.8-1.9-1.9c0-1,0.8-1.9,1.9-1.9
		C265.4,505.6,266.3,506.4,266.3,507.4L266.3,507.4z M266.3,507.4"/>
	<path fill="#FFFFFF" d="M276.4,497.3c0,1-0.8,1.9-1.9,1.9s-1.9-0.8-1.9-1.9c0-1,0.8-1.9,1.9-1.9S276.4,496.3,276.4,497.3
		L276.4,497.3z M276.4,497.3"/>
	<path fill="#FFFFFF" d="M256.1,497.3c0,1-0.8,1.9-1.9,1.9c-1,0-1.9-0.8-1.9-1.9c0-1,0.8-1.9,1.9-1.9
		C255.3,495.4,256.1,496.3,256.1,497.3L256.1,497.3z M256.1,497.3"/>
	<path fill="#FFFFFF" d="M269.9,502.8l-0.4-1.5l-0.4,0.4l-1.8-1.8c0.5-0.6,0.9-1.4,0.9-2.3h2.6v0.5l1.4-0.8l-1.4-0.8v0.5h-2.6
		c-0.1-0.8-0.4-1.6-0.9-2.2l1.9-1.9l0.4,0.4l0.4-1.5l-1.5,0.4l0.4,0.4l-1.9,1.9c-0.6-0.5-1.4-0.8-2.2-0.9v-2.7h0.5l-0.8-1.4
		l-0.8,1.4h0.5v2.7c-0.8,0.1-1.6,0.4-2.2,0.9l-1.9-1.9l0.4-0.4l-1.5-0.4l0.4,1.5l0.4-0.4l1.9,1.9c-0.5,0.6-0.9,1.4-0.9,2.2h-2.6
		v-0.5l-1.4,0.8l1.4,0.8v-0.5h2.6c0,0.9,0.4,1.6,0.9,2.3l-1.8,1.8l-0.4-0.4l-0.4,1.5l1.5-0.4l-0.4-0.4l1.8-1.8
		c0.6,0.5,1.4,0.9,2.3,1v2.5h-0.5l0.8,1.4l0.8-1.4h-0.5v-2.5c0.9-0.1,1.7-0.4,2.3-1l1.8,1.8l-0.4,0.4L269.9,502.8z M269.9,502.8"/>
	<path fill="#FFFFFF" d="M273.4,490.1c0,1-0.8,1.9-1.9,1.9c-1,0-1.9-0.8-1.9-1.9c0-1,0.8-1.9,1.9-1.9
		C272.6,488.3,273.4,489.1,273.4,490.1L273.4,490.1z M273.4,490.1"/>
	<path fill="#FFFFFF" d="M259.1,504.5c0,1-0.8,1.9-1.9,1.9c-1,0-1.9-0.8-1.9-1.9c0-1,0.8-1.9,1.9-1.9
		C258.3,502.6,259.1,503.4,259.1,504.5L259.1,504.5z M259.1,504.5"/>
	<path fill="#FFFFFF" d="M273.4,504.5c0,1-0.8,1.9-1.9,1.9c-1,0-1.9-0.8-1.9-1.9c0-1,0.8-1.9,1.9-1.9
		C272.6,502.6,273.4,503.4,273.4,504.5L273.4,504.5z M273.4,504.5"/>
	<path fill="#FFFFFF" d="M259.1,490.1c0,1-0.8,1.9-1.9,1.9c-1,0-1.9-0.8-1.9-1.9c0-1,0.8-1.9,1.9-1.9
		C258.3,488.3,259.1,489.1,259.1,490.1L259.1,490.1z M259.1,490.1"/>
</g>
<g>
	<path fill="#FFFFFF" d="M275.1,538.2l-1.8-1.8c-0.2-0.2-0.5-0.4-0.8-0.4c-0.3,0-0.5,0.1-0.7,0.3l-1.4,1.4l-5.7,5.8
		c-0.1,0.1-0.2,0.2-0.2,0.3l-1,3.4c0,0.1,0,0.1,0,0.2c0,0.3,0.3,0.6,0.6,0.6c0.1,0,0.1,0,0.2,0l3.4-1c0.1,0,0.2-0.1,0.3-0.1l5.8-5.8
		l1.4-1.4c0.2-0.2,0.3-0.4,0.3-0.7C275.4,538.7,275.3,538.4,275.1,538.2L275.1,538.2z M267.1,545.9l-2.1,0.6l0.6-2.1l5.1-5.2
		l1.5,1.5L267.1,545.9z M273.2,539.7l-1.5-1.5l0.8-0.8l1.5,1.5L273.2,539.7z M273.2,539.7"/>
	<g>
		<path fill="#FFFFFF" d="M266.3,535.4h-10c-0.4,0-0.6,0.3-0.6,0.6s0.3,0.7,0.6,0.7h10c0.4,0,0.6-0.3,0.6-0.7
			S266.7,535.4,266.3,535.4L266.3,535.4z M266.3,535.4"/>
		<path fill="#FFFFFF" d="M266.9,538.9c0-0.4-0.3-0.6-0.6-0.6h-10c-0.4,0-0.6,0.3-0.6,0.6c0,0.4,0.3,0.7,0.6,0.7h10
			C266.7,539.6,266.9,539.3,266.9,538.9L266.9,538.9z M266.9,538.9"/>
		<path fill="#FFFFFF" d="M260.9,541.2h-4.6c-0.4,0-0.6,0.3-0.6,0.6c0,0.4,0.3,0.6,0.6,0.6h4.6c0.4,0,0.7-0.3,0.7-0.6
			C261.6,541.4,261.3,541.2,260.9,541.2L260.9,541.2z M260.9,541.2"/>
		<path fill="#FFFFFF" d="M260.9,544.1h-4.6c-0.4,0-0.6,0.3-0.6,0.6c0,0.4,0.3,0.6,0.6,0.6h4.6c0.4,0,0.7-0.3,0.7-0.6
			C261.6,544.4,261.3,544.1,260.9,544.1L260.9,544.1z M260.9,544.1"/>
		<path fill="#FFFFFF" d="M254.7,546.7v-21.2c0-0.1,0-0.1,0.1-0.1h4.8v7c0,0.8,0.6,1.4,1.4,1.4h6.9v3.9h1.3v-5.3h0l-8.3-8.4l0,0h-6
			c-0.4,0-0.7,0.1-1,0.4c-0.3,0.3-0.4,0.6-0.4,1v21.2c0,0.8,0.6,1.4,1.4,1.4h7.6v-1.3h-7.6C254.7,546.8,254.7,546.7,254.7,546.7
			L254.7,546.7z M260.9,525.9l6.5,6.5H261c-0.1,0-0.1,0-0.1-0.1V525.9z M260.9,525.9"/>
	</g>
</g>
<g>
	<g>
		<path fill="#FFFFFF" d="M264.4,575.7c-0.9,0-1.7-0.8-1.7-1.7v-9.5c0-0.9,0.7-1.7,1.7-1.7c0.9,0,1.7,0.8,1.7,1.7v9.5
			C266.1,575,265.3,575.7,264.4,575.7L264.4,575.7z M264.4,575.7"/>
	</g>
	<path fill="#FFFFFF" d="M264.4,586.8c-5.8,0-10.5-4.8-10.5-10.6c0-3.4,1.6-6.7,4.4-8.7c0.7-0.5,1.8-0.4,2.3,0.4s0.4,1.8-0.4,2.3
		c-1.9,1.4-3,3.6-3,5.9c0,4,3.2,7.3,7.2,7.3c4,0,7.2-3.3,7.2-7.3c0-2.3-1.1-4.6-3-5.9c-0.7-0.5-0.9-1.6-0.4-2.3s1.6-0.9,2.3-0.4
		c2.8,2,4.4,5.2,4.4,8.7C274.9,582.1,270.2,586.8,264.4,586.8L264.4,586.8z M264.4,586.8"/>
</g>
<g>
	<path fill="#FFFFFF" d="M182.2,469.4c0,0.6,0.6,1.2,1.2,1.2h11.3c0.7,0,1.2-0.5,1.2-1.2l0.8-17h-15.4L182.2,469.4z M191.6,456.6
		c0-0.3,0.2-0.5,0.5-0.5h0.8c0.3,0,0.5,0.2,0.5,0.5v9.7c0,0.3-0.2,0.5-0.5,0.5h-0.8c-0.3,0-0.5-0.2-0.5-0.5V456.6z M188.2,456.6
		c0-0.3,0.2-0.5,0.5-0.5h0.8c0.3,0,0.5,0.2,0.5,0.5v9.7c0,0.3-0.2,0.5-0.5,0.5h-0.8c-0.3,0-0.5-0.2-0.5-0.5V456.6z M184.7,456.6
		c0-0.3,0.2-0.5,0.5-0.5h0.8c0.3,0,0.5,0.2,0.5,0.5v9.7c0,0.3-0.2,0.5-0.5,0.5h-0.8c-0.3,0-0.5-0.2-0.5-0.5V456.6z M184.7,456.6"/>
	<path fill="#FFFFFF" d="M197.3,447.7h-5.2v-1c0-0.1-0.1-0.3-0.3-0.3h-5.5c-0.1,0-0.3,0.1-0.3,0.3v1h-5.2c-0.4,0-0.8,0.3-0.8,0.8
		v2.4h18v-2.4C198.1,448.1,197.7,447.7,197.3,447.7L197.3,447.7z M197.3,447.7"/>
</g>
<path fill="#FFFFFF" d="M125.6,447.6c-0.1-0.1-0.3-0.1-0.4-0.1L102,458.3c-0.1,0.1-0.2,0.2-0.2,0.3c0,0.1,0.1,0.3,0.2,0.3l6.6,3.2
	c0.1,0.1,0.3,0,0.4,0l6.4-4.7l-5,5.1c-0.1,0.1-0.1,0.2-0.1,0.3l0.5,6.5c0,0.1,0.1,0.3,0.2,0.3c0,0,0.1,0,0.1,0c0.1,0,0.2,0,0.3-0.1
	l3.5-4l4.3,2c0.1,0,0.2,0,0.3,0c0.1,0,0.2-0.1,0.2-0.2l6.1-19.2C125.8,447.8,125.7,447.7,125.6,447.6L125.6,447.6z"/>
<g>
	<path fill="#FFFFFF" d="M35.8,452.8l-8.6,7c0,0,0,0,0,0c0,0,0,0,0,0v7.1c0,0.3,0.1,0.5,0.3,0.7c0.2,0.2,0.4,0.3,0.7,0.3h5.7v-5.7
		h3.8v5.7h5.7c0.3,0,0.5-0.1,0.7-0.3c0.2-0.2,0.3-0.4,0.3-0.7V460c0,0,0-0.1,0-0.1L35.8,452.8z"/>
	<path fill="#FFFFFF" d="M47.6,458.3l-3.3-2.7v-6c0-0.1,0-0.3-0.1-0.3c-0.1-0.1-0.2-0.1-0.3-0.1H41c-0.1,0-0.3,0-0.3,0.1
		c-0.1,0.1-0.1,0.2-0.1,0.3v2.9l-3.6-3c-0.3-0.3-0.7-0.4-1.1-0.4c-0.4,0-0.8,0.1-1.1,0.4L24,458.3c-0.1,0.1-0.2,0.2-0.2,0.3
		c0,0.1,0,0.2,0.1,0.3l0.9,1.1c0.1,0.1,0.2,0.1,0.3,0.2c0.1,0,0.2,0,0.4-0.1l10.3-8.5l10.3,8.5c0.1,0.1,0.2,0.1,0.3,0.1h0
		c0.1,0,0.2-0.1,0.3-0.2l0.9-1.1c0.1-0.1,0.1-0.2,0.1-0.3C47.8,458.4,47.7,458.3,47.6,458.3z"/>
</g>
<g>
	<path fill="#FFFFFF" d="M189.1,326.4c6.2,0,11.2-6.2,11.2-13.8c0-7.6-5-13.8-11.2-13.8c-3.1,0-5.9,1.5-8.1,4.1
		c-2.1,2.6-3.2,6-3.2,9.6C177.8,320.3,182.9,326.4,189.1,326.4L189.1,326.4z M189.1,301.4c4.8,0,8.7,5,8.7,11.2s-3.9,11.2-8.7,11.2
		c-4.8,0-8.8-5-8.8-11.2S184.2,301.4,189.1,301.4L189.1,301.4z M197.8,323.9c-0.7,0-1.2,0.6-1.2,1.3c0,0.7,0.6,1.3,1.2,1.3
		c4.8,0,8.8,3.9,8.8,8.7c0,0.7-0.6,1.3-1.3,1.3h-32.5c-0.7,0-1.2-0.6-1.2-1.3c0-4.8,3.9-8.7,8.7-8.7c0.7,0,1.3-0.6,1.3-1.3
		c0-0.7-0.6-1.3-1.3-1.3c-6.2,0-11.2,5-11.2,11.2c0,2.1,1.7,3.8,3.7,3.8h32.5c2.1,0,3.8-1.7,3.8-3.8
		C209.1,329,204,323.9,197.8,323.9L197.8,323.9z M197.8,323.9"/>
</g>
<g>
	<path fill="#FFFFFF" d="M264.4,400.6c5.6,0,10.1-5.6,10.1-12.4c0-6.8-4.5-12.4-10.1-12.4c-2.8,0-5.3,1.3-7.2,3.7
		c-1.9,2.3-2.9,5.4-2.9,8.7C254.3,395,258.8,400.6,264.4,400.6L264.4,400.6z M264.4,378.1c4.3,0,7.9,4.5,7.9,10.1
		c0,5.6-3.5,10.1-7.9,10.1c-4.3,0-7.9-4.5-7.9-10.1C256.5,382.6,260.1,378.1,264.4,378.1L264.4,378.1z M272.3,398.3
		c-0.6,0-1.1,0.5-1.1,1.1c0,0.6,0.5,1.1,1.1,1.1c4.3,0,7.9,3.5,7.9,7.9c0,0.6-0.5,1.1-1.1,1.1h-29.2c-0.6,0-1.1-0.5-1.1-1.1
		c0-4.3,3.5-7.9,7.9-7.9c0.6,0,1.1-0.5,1.1-1.1c0-0.6-0.5-1.1-1.1-1.1c-5.6,0-10.1,4.5-10.1,10.1c0,1.9,1.5,3.4,3.4,3.4H279
		c1.9,0,3.4-1.5,3.4-3.4C282.4,402.9,277.9,398.3,272.3,398.3L272.3,398.3z M272.3,398.3"/>
</g>
<g>
	<path fill="#FFFFFF" d="M47,611.6h-2.8c-0.4,0-0.8,0.3-0.8,0.8c0,0.4,0.3,0.8,0.8,0.8H47c0.4,0,0.8-0.3,0.8-0.8
		C47.8,612,47.5,611.6,47,611.6L47,611.6z"/>
	<path fill="#FFFFFF" d="M43,609.8c0.1,0,0.2,0,0.3-0.1l3.3-1.7c0.4-0.2,0.5-0.7,0.3-1c-0.2-0.4-0.6-0.5-1-0.3l-3.3,1.7
		c-0.4,0.2-0.5,0.7-0.3,1C42.5,609.7,42.8,609.8,43,609.8L43,609.8z"/>
	<path fill="#FFFFFF" d="M24.6,608.6c-0.4,0-0.8,0.3-0.8,0.8v6c0,0.4,0.3,0.8,0.8,0.8c0.4,0,0.8-0.3,0.8-0.8v-6
		C25.3,609,25,608.6,24.6,608.6L24.6,608.6z M24.6,608.6"/>
	<path fill="#FFFFFF" d="M40.7,604.1h-3.2c-0.4,0-0.8,0.3-0.8,0.8v0.7l-10.2,3.1c-0.3,0.1-0.5,0.4-0.5,0.7v6c0,0,0,0.1,0,0.1
		c0,0,0,0,0,0c0,0,0,0.1,0,0.1l2.2,7c0.1,0.3,0.4,0.5,0.7,0.5c0.1,0,0.2,0,0.2,0l3.1-1c0.2-0.1,0.4-0.2,0.4-0.4
		c0.1-0.2,0.1-0.4,0.1-0.6l-1.1-3.5l5,1.5v0.7c0,0.4,0.3,0.8,0.8,0.8h3.2c0.4,0,0.8-0.3,0.8-0.8v-15
		C41.5,604.5,41.1,604.1,40.7,604.1L40.7,604.1z M31.1,620.9l-1.7,0.5l-1.5-4.9l2,0.6L31.1,620.9z M30.8,615.8
		C30.8,615.8,30.8,615.8,30.8,615.8l-3.3-1V610l9.2-2.8v10.4L30.8,615.8z M40,619.1h-1.6v-13.4H40V619.1z M40,619.1"/>
	<path fill="#FFFFFF" d="M46.7,616.7l-3.3-1.7c-0.4-0.2-0.8,0-1,0.3c-0.2,0.4,0,0.8,0.3,1l3.3,1.7c0.1,0.1,0.2,0.1,0.3,0.1
		c0.3,0,0.5-0.2,0.7-0.4C47.2,617.3,47,616.9,46.7,616.7L46.7,616.7z M46.7,616.7"/>
</g>
<g>
	<path fill="#FFFFFF" d="M113.7,548.1c1.3,0,2.3-1.1,2.3-2.4h-4.7C111.4,547,112.5,548.1,113.7,548.1L113.7,548.1z M121.6,541.1
		c-0.2-0.2-0.2-0.4-0.2-0.6v-6.2c0-3.7-2.5-6.7-5.9-7.6V526c0-0.7-0.4-1.4-1-1.7c-1.2-0.6-2.5,0.4-2.5,1.6v0.8
		c-3.4,0.8-5.9,3.8-5.9,7.6v6.2c0,0.2-0.1,0.4-0.2,0.6L104,543c-0.2,0.2-0.2,0.4-0.2,0.6l0,0c0,0.5,0.4,0.8,0.8,0.8h18.3
		c0.5,0,0.8-0.4,0.8-0.8l0,0c0-0.2-0.1-0.4-0.2-0.6L121.6,541.1z M121.4,540.9"/>
</g>
<path fill="#57F9FF" d="M35.8,640.4c-4.4,0-8,3.7-8,8.3c0,3.5,4.7,11.5,6.9,15.1c0.2,0.4,0.7,0.6,1.1,0.6c0.5,0,0.9-0.2,1.1-0.6
	c2.2-3.6,6.9-11.6,6.9-15.1C43.8,644.1,40.2,640.4,35.8,640.4z M35.8,652.7c-2,0-3.6-1.7-3.6-3.7c0-2,1.6-3.7,3.6-3.7
	c2,0,3.6,1.7,3.6,3.7C39.4,651.1,37.8,652.7,35.8,652.7z"/>
<path fill="#57F9FF" d="M122.2,760.8c-2-0.1-3.5,1.7-3.6,3.6c0.1,1.3,0.7,2.3,1.5,2.8c-0.8,1.2-1.6,2.4-2.4,3.6
	c-0.5-0.2-1-0.4-1.5-0.4c-0.7,0-1.3,0.2-1.9,0.6c-0.9-1-1.8-2.1-2.8-3.1c0.2-0.3,0.3-0.7,0.3-1.1c0.1-1.4-1.2-2.4-2.5-2.4
	c-1.4-0.1-2.4,1.2-2.5,2.4c0,0.4,0.1,0.7,0.3,1c-0.8,0.9-1.5,1.7-2.3,2.6c-0.3-0.2-0.7-0.4-1.2-0.4c-1.2-0.1-2,1-2.1,2.1
	c-0.1,1.2,1,2,2.1,2.1c1.2,0.1,2.1-1,2.1-2.1c0-0.4-0.1-0.8-0.3-1.1c0.6-0.7,1.2-1.3,1.7-2c0.2-0.2,0.3-0.4,0.5-0.5
	c0.4,0.4,1,0.7,1.7,0.7c0.7,0,1.2-0.2,1.7-0.7c0.9,1,1.8,2,2.7,3c-0.4,0.5-0.6,1.2-0.7,1.9c0.1,1.8,1.4,3,3.1,3.1
	c1.8,0.1,3-1.5,3.1-3.1c0.1-0.9-0.3-1.7-1-2.2c0.8-1.2,1.6-2.5,2.5-3.7c2,0.7,4.7-0.3,4.8-3.2C125.9,762.4,124.1,760.9,122.2,760.8
	L122.2,760.8z M122.2,760.8"/>
<path fill="#57F9FF" d="M200.1,651.4h-1.7c-0.4-4.4-3.9-7.9-8.3-8.4v-1.7c0-0.6-0.4-1-1-1c-0.6,0-1,0.4-1,1v1.7
	c-4.4,0.5-7.8,4-8.3,8.4h-1.7c-0.6,0-1,0.4-1,1c0,0.6,0.4,1,1,1h1.8c0.5,4.3,4,7.7,8.3,8.2v1.7c0,0.6,0.4,1,1,1c0.6,0,1-0.4,1-1
	v-1.7c4.3-0.5,7.8-3.9,8.3-8.2h1.7c0.6,0,1-0.4,1-1C201.1,651.9,200.6,651.4,200.1,651.4z M191.3,652.4c0,0.6,0.4,1,1,1h4.1
	c-0.5,3.2-3.1,5.8-6.3,6.2v-4c0-0.6-0.4-1-1-1s-1,0.4-1,1v4c-3.2-0.4-5.8-3-6.2-6.2h4c0.6,0,1-0.4,1-1c0-0.6-0.4-1-1-1h-4
	c0.4-3.3,3-5.9,6.3-6.3v4.1c0,0.6,0.4,1,1,1s1-0.4,1-1v-4.1c3.3,0.4,5.9,3.1,6.3,6.3l-4.1,0C191.7,651.4,191.3,651.9,191.3,652.4z"
	/>
<g>
	<path fill="#57F9FF" d="M198.1,604.1h-15c-1.7,0-3,1.3-3,2.9v5.3l3-2.3V607h15v10.2h-3.4l-3.7,2.9h7.1c1.7,0,3-1.3,3-2.9V607
		C201.1,605.4,199.7,604.1,198.1,604.1L198.1,604.1z M198.1,604.1"/>
	<path fill="#57F9FF" d="M177.1,617.3l7.5,5.8v-2.9c5.3-0.1,10.5-4.6,10.5-10.3c-2.5,2.4-5.5,4.6-10.5,4.4v-2.9L177.1,617.3z
		 M177.1,617.3"/>
</g>
<g>
	<g>
		<path fill="#57F9FF" d="M264.4,614.5c-0.9,0-1.7-0.8-1.7-1.7v-9.5c0-0.9,0.7-1.7,1.7-1.7c0.9,0,1.7,0.8,1.7,1.7v9.5
			C266.1,613.7,265.3,614.5,264.4,614.5L264.4,614.5z M264.4,614.5"/>
	</g>
	<path fill="#57F9FF" d="M264.4,625.6c-5.8,0-10.5-4.8-10.5-10.6c0-3.4,1.6-6.7,4.4-8.7c0.7-0.5,1.8-0.4,2.3,0.4s0.4,1.8-0.4,2.3
		c-1.9,1.4-3,3.6-3,5.9c0,4,3.2,7.3,7.2,7.3c4,0,7.2-3.3,7.2-7.3c0-2.3-1.1-4.6-3-5.9c-0.7-0.5-0.9-1.6-0.4-2.3s1.6-0.9,2.3-0.4
		c2.8,2,4.4,5.2,4.4,8.7C274.9,620.8,270.2,625.6,264.4,625.6L264.4,625.6z M264.4,625.6"/>
</g>
<g>
	<path fill="#57F9FF" d="M273.4,759.2h-15c-1.7,0-3,1.3-3,2.9v5.3l3-2.3v-2.9h15v10.2H270l-3.7,2.9h7.1c1.7,0,3-1.3,3-2.9v-10.2
		C276.4,760.5,275.1,759.2,273.4,759.2L273.4,759.2z M273.4,759.2"/>
	<path fill="#57F9FF" d="M252.4,772.4l7.5,5.8v-2.9c5.3-0.1,10.5-4.6,10.5-10.3c-2.5,2.4-5.5,4.6-10.5,4.4v-2.9L252.4,772.4z
		 M252.4,772.4"/>
</g>
<g>
	<path fill="#57F9FF" d="M116.6,658.6c0,1.5-1.3,2.8-2.8,2.8c-1.6,0-2.8-1.3-2.8-2.8c0-1.5,1.3-2.8,2.8-2.8
		C115.3,655.8,116.6,657.1,116.6,658.6L116.6,658.6z M116.6,658.6"/>
	<g>
		<path fill="#57F9FF" d="M120.5,651.9c0,0-0.1-0.1-0.1-0.1l-0.1-0.1c0,0,0,0-0.1-0.1c-3.6-3.3-9.2-3.2-12.6,0.3l-0.4,0.4l-0.6,0.6
			c-0.7,0.7-0.7,1.8,0,2.5c0.7,0.7,1.8,0.7,2.5,0l1-1c2.2-2.2,5.8-2.2,8,0l0.7,0.7c0.7,0.7,1.8,0.7,2.5,0c0.3-0.3,0.5-0.8,0.5-1.2
			c0-0.5-0.2-0.9-0.5-1.2L120.5,651.9z M120.5,651.9"/>
		<path fill="#57F9FF" d="M125.3,648.4l-0.6-0.6c0,0,0,0,0,0l-0.5-0.5c-0.1-0.1-0.2-0.1-0.3-0.2c-5.9-5.2-14.9-5-20.6,0.5
			c0,0-0.1,0-0.1,0.1l-1.1,1c-0.6,0.6-0.6,1.6,0,2.3c0.6,0.6,1.6,0.6,2.3,0l1-1c0,0,0,0,0,0c4.6-4.5,12-4.5,16.6-0.1l0.8,0.8
			c0.6,0.6,1.6,0.6,2.3,0C125.9,650,125.9,649,125.3,648.4L125.3,648.4z M125.3,648.4"/>
	</g>
</g>
<g>
	<path fill="#57F9FF" d="M198.1,688.3C198.1,688.3,198.1,688.3,198.1,688.3c0-0.1,0-0.1,0-0.1c0,0,0-0.1-0.1-0.1l-8.6-8.8
		c0,0-0.1,0-0.1-0.1c0,0,0,0,0,0c0,0-0.1,0-0.1,0c0,0,0,0,0,0h-8.8c-0.2,0-0.3,0.1-0.3,0.3v23.3c0,0.2,0.1,0.3,0.3,0.3h17.4
		c0.2,0,0.3-0.1,0.3-0.3L198.1,688.3C198.1,688.3,198.1,688.3,198.1,688.3L198.1,688.3z M189.5,680.3l7.5,7.7h-7.5V680.3z
		 M180.7,702.5v-22.7h8.1v8.5c0,0.2,0.1,0.3,0.3,0.3h8.3v13.8H180.7z M180.7,702.5"/>
	<rect x="183.3" y="690.8" fill="#57F9FF" width="1.1" height="0.7"/>
	<rect x="186.2" y="690.8" fill="#57F9FF" width="8.7" height="0.7"/>
	<rect x="183.3" y="693.5" fill="#57F9FF" width="1.1" height="0.7"/>
	<rect x="186.2" y="693.5" fill="#57F9FF" width="8.7" height="0.7"/>
	<rect x="186.2" y="696.1" fill="#57F9FF" width="8.7" height="0.7"/>
	<rect x="183.3" y="696.1" fill="#57F9FF" width="1.1" height="0.7"/>
	<rect x="186.2" y="698.7" fill="#57F9FF" width="8.7" height="0.7"/>
	<rect x="183.3" y="698.7" fill="#57F9FF" width="1.1" height="0.7"/>
</g>
<g>
	<path fill-rule="evenodd" clip-rule="evenodd" fill="#57F9FF" d="M35.8,685.2c-0.8,0-1.5,0.7-1.5,1.5c0,0.8,0.7,1.5,1.5,1.5
		c0.8,0,1.5-0.7,1.5-1.5C37.3,685.8,36.6,685.2,35.8,685.2L35.8,685.2z M35.8,689.7c-0.8,0-1.5,0.7-1.5,1.5l0,4.5
		c0,0.8,0.7,1.5,1.5,1.5c0.8,0,1.5-0.7,1.5-1.5l0-4.5C37.3,690.3,36.6,689.7,35.8,689.7L35.8,689.7z M35.7,679.2
		c-6.6,0-12,5.5-11.9,12.1c0,6.6,5.5,12,12.1,11.9c6.6,0,12-5.5,11.9-12.1C47.8,684.5,42.3,679.1,35.7,679.2L35.7,679.2z
		 M35.9,700.9c-5.4,0-9.8-4.3-9.8-9.7c0-5.4,4.3-9.8,9.7-9.8c5.4,0,9.8,4.3,9.8,9.7C45.6,696.5,41.2,700.9,35.9,700.9L35.9,700.9z
		 M35.9,700.9"/>
</g>
<g>
	<path fill="#57F9FF" d="M41.6,728.5V724c0-3.3-2.6-6-5.8-6c-3.2,0-5.8,2.7-5.8,6v4.5c-1.2,0-2.2,1-2.2,2.3v9c0,1.2,1,2.3,2.2,2.3
		h11.6c1.2,0,2.2-1,2.2-2.3v-9C43.8,729.5,42.8,728.5,41.6,728.5L41.6,728.5z M31.4,724c0-2.5,2-4.5,4.4-4.5c2.4,0,4.4,2,4.4,4.5
		v4.5h-8.7V724z M42.3,739.7c0,0.4-0.3,0.8-0.7,0.8H30c-0.4,0-0.7-0.3-0.7-0.8v-9c0-0.4,0.3-0.8,0.7-0.8h11.6c0.4,0,0.7,0.3,0.7,0.8
		V739.7z M36.5,734.7V733c0-0.4-0.3-0.8-0.7-0.8c-0.4,0-0.7,0.3-0.7,0.8v1.7c-0.4,0.3-0.7,0.7-0.7,1.3c0,0.8,0.7,1.5,1.5,1.5
		c0.8,0,1.5-0.7,1.5-1.5C37.3,735.4,37,734.9,36.5,734.7L36.5,734.7z M36.5,734.7"/>
</g>
<g>
	<path fill="#57F9FF" d="M190.9,719.8c0,1-0.8,1.9-1.9,1.9c-1,0-1.9-0.8-1.9-1.9c0-1,0.8-1.9,1.9-1.9
		C190.1,718,190.9,718.8,190.9,719.8L190.9,719.8z M190.9,719.8"/>
	<path fill="#57F9FF" d="M190.9,740.1c0,1-0.8,1.9-1.9,1.9c-1,0-1.9-0.8-1.9-1.9c0-1,0.8-1.9,1.9-1.9
		C190.1,738.2,190.9,739.1,190.9,740.1L190.9,740.1z M190.9,740.1"/>
	<path fill="#57F9FF" d="M201.1,730c0,1-0.8,1.9-1.9,1.9c-1,0-1.9-0.8-1.9-1.9c0-1,0.8-1.9,1.9-1.9
		C200.2,728.1,201.1,728.9,201.1,730L201.1,730z M201.1,730"/>
	<path fill="#57F9FF" d="M180.8,730c0,1-0.8,1.9-1.9,1.9c-1,0-1.9-0.8-1.9-1.9c0-1,0.8-1.9,1.9-1.9C180,728.1,180.8,728.9,180.8,730
		L180.8,730z M180.8,730"/>
	<path fill="#57F9FF" d="M194.5,735.4l-0.4-1.5l-0.4,0.4l-1.8-1.8c0.5-0.6,0.9-1.4,0.9-2.3h2.6v0.5l1.4-0.8l-1.4-0.8v0.5h-2.6
		c-0.1-0.8-0.4-1.6-0.9-2.2l1.9-1.9l0.4,0.4l0.4-1.5l-1.5,0.4l0.4,0.4l-1.9,1.9c-0.6-0.5-1.4-0.8-2.2-0.9v-2.7h0.5l-0.8-1.4
		l-0.8,1.4h0.5v2.7c-0.8,0.1-1.6,0.4-2.2,0.9l-1.9-1.9l0.4-0.4l-1.5-0.4l0.4,1.5l0.4-0.4l1.9,1.9c-0.5,0.6-0.9,1.4-0.9,2.2h-2.6
		v-0.5l-1.4,0.8l1.4,0.8v-0.5h2.6c0,0.9,0.4,1.6,0.9,2.3l-1.8,1.8l-0.4-0.4l-0.4,1.5l1.5-0.4l-0.4-0.4l1.8-1.8
		c0.6,0.5,1.4,0.9,2.3,1v2.5h-0.5l0.8,1.4l0.8-1.4h-0.5v-2.5c0.9-0.1,1.7-0.4,2.3-1l1.8,1.8L193,735L194.5,735.4z M194.5,735.4"/>
	<path fill="#57F9FF" d="M198.1,722.8c0,1-0.8,1.9-1.9,1.9c-1,0-1.9-0.8-1.9-1.9c0-1,0.8-1.9,1.9-1.9
		C197.3,720.9,198.1,721.8,198.1,722.8L198.1,722.8z M198.1,722.8"/>
	<path fill="#57F9FF" d="M183.8,737.1c0,1-0.8,1.9-1.9,1.9c-1,0-1.9-0.8-1.9-1.9c0-1,0.8-1.9,1.9-1.9
		C182.9,735.3,183.8,736.1,183.8,737.1L183.8,737.1z M183.8,737.1"/>
	<path fill="#57F9FF" d="M198.1,737.1c0,1-0.8,1.9-1.9,1.9c-1,0-1.9-0.8-1.9-1.9c0-1,0.8-1.9,1.9-1.9
		C197.3,735.3,198.1,736.1,198.1,737.1L198.1,737.1z M198.1,737.1"/>
	<path fill="#57F9FF" d="M183.8,722.8c0,1-0.8,1.9-1.9,1.9c-1,0-1.9-0.8-1.9-1.9c0-1,0.8-1.9,1.9-1.9
		C182.9,720.9,183.8,721.8,183.8,722.8L183.8,722.8z M183.8,722.8"/>
</g>
<g>
	<path fill="#57F9FF" d="M275.1,693.3l-1.8-1.8c-0.2-0.2-0.5-0.4-0.8-0.4c-0.3,0-0.5,0.1-0.7,0.3l-1.4,1.4l-5.7,5.8
		c-0.1,0.1-0.2,0.2-0.2,0.3l-1,3.4c0,0.1,0,0.1,0,0.2c0,0.3,0.3,0.6,0.6,0.6c0.1,0,0.1,0,0.2,0l3.4-1c0.1,0,0.2-0.1,0.3-0.1l5.8-5.8
		l1.4-1.4c0.2-0.2,0.3-0.4,0.3-0.7C275.4,693.8,275.3,693.5,275.1,693.3L275.1,693.3z M267.1,701l-2.1,0.6l0.6-2.1l5.1-5.2l1.5,1.5
		L267.1,701z M273.2,694.9l-1.5-1.5l0.8-0.8l1.5,1.5L273.2,694.9z M273.2,694.9"/>
	<g>
		<path fill="#57F9FF" d="M266.3,690.5h-10c-0.4,0-0.6,0.3-0.6,0.6s0.3,0.7,0.6,0.7h10c0.4,0,0.6-0.3,0.6-0.7
			S266.7,690.5,266.3,690.5L266.3,690.5z M266.3,690.5"/>
		<path fill="#57F9FF" d="M266.9,694c0-0.4-0.3-0.6-0.6-0.6h-10c-0.4,0-0.6,0.3-0.6,0.6c0,0.4,0.3,0.7,0.6,0.7h10
			C266.7,694.7,266.9,694.4,266.9,694L266.9,694z M266.9,694"/>
		<path fill="#57F9FF" d="M260.9,696.3h-4.6c-0.4,0-0.6,0.3-0.6,0.6c0,0.4,0.3,0.6,0.6,0.6h4.6c0.4,0,0.7-0.3,0.7-0.6
			C261.6,696.6,261.3,696.3,260.9,696.3L260.9,696.3z M260.9,696.3"/>
		<path fill="#57F9FF" d="M260.9,699.2h-4.6c-0.4,0-0.6,0.3-0.6,0.6c0,0.4,0.3,0.6,0.6,0.6h4.6c0.4,0,0.7-0.3,0.7-0.6
			C261.6,699.5,261.3,699.2,260.9,699.2L260.9,699.2z M260.9,699.2"/>
		<path fill="#57F9FF" d="M254.7,701.8v-21.2c0-0.1,0-0.1,0.1-0.1h4.8v7c0,0.8,0.6,1.4,1.4,1.4h6.9v3.9h1.3v-5.3h0l-8.3-8.4l0,0h-6
			c-0.4,0-0.7,0.1-1,0.4c-0.3,0.3-0.4,0.6-0.4,1v21.2c0,0.8,0.6,1.4,1.4,1.4h7.6v-1.3h-7.6C254.7,701.9,254.7,701.8,254.7,701.8
			L254.7,701.8z M260.9,681l6.5,6.5H261c-0.1,0-0.1,0-0.1-0.1V681z M260.9,681"/>
	</g>
</g>
<g>
	<g>
		<path fill="#57F9FF" d="M264.4,730.8c-0.9,0-1.7-0.8-1.7-1.7v-9.5c0-0.9,0.7-1.7,1.7-1.7c0.9,0,1.7,0.8,1.7,1.7v9.5
			C266.1,730.1,265.3,730.8,264.4,730.8L264.4,730.8z M264.4,730.8"/>
	</g>
	<path fill="#57F9FF" d="M264.4,742c-5.8,0-10.5-4.8-10.5-10.6c0-3.4,1.6-6.7,4.4-8.7c0.7-0.5,1.8-0.4,2.3,0.4s0.4,1.8-0.4,2.3
		c-1.9,1.4-3,3.6-3,5.9c0,4,3.2,7.3,7.2,7.3c4,0,7.2-3.3,7.2-7.3c0-2.3-1.1-4.6-3-5.9c-0.7-0.5-0.9-1.6-0.4-2.3s1.6-0.9,2.3-0.4
		c2.8,2,4.4,5.2,4.4,8.7C274.9,737.2,270.2,742,264.4,742L264.4,742z M264.4,742"/>
</g>
<g>
	<path fill="#57F9FF" d="M182.2,779.6c0,0.6,0.6,1.2,1.2,1.2h11.3c0.7,0,1.2-0.5,1.2-1.2l0.8-17h-15.4L182.2,779.6z M191.6,766.8
		c0-0.3,0.2-0.5,0.5-0.5h0.8c0.3,0,0.5,0.2,0.5,0.5v9.7c0,0.3-0.2,0.5-0.5,0.5h-0.8c-0.3,0-0.5-0.2-0.5-0.5V766.8z M188.2,766.8
		c0-0.3,0.2-0.5,0.5-0.5h0.8c0.3,0,0.5,0.2,0.5,0.5v9.7c0,0.3-0.2,0.5-0.5,0.5h-0.8c-0.3,0-0.5-0.2-0.5-0.5V766.8z M184.7,766.8
		c0-0.3,0.2-0.5,0.5-0.5h0.8c0.3,0,0.5,0.2,0.5,0.5v9.7c0,0.3-0.2,0.5-0.5,0.5h-0.8c-0.3,0-0.5-0.2-0.5-0.5V766.8z M184.7,766.8"/>
	<path fill="#57F9FF" d="M197.3,758h-5.2v-1c0-0.1-0.1-0.3-0.3-0.3h-5.5c-0.1,0-0.3,0.1-0.3,0.3v1h-5.2c-0.4,0-0.8,0.3-0.8,0.8v2.4
		h18v-2.4C198.1,758.3,197.7,758,197.3,758L197.3,758z M197.3,758"/>
</g>
<path fill="#57F9FF" d="M276.3,641.5c-0.1-0.1-0.3-0.1-0.4-0.1l-23.3,10.7c-0.1,0.1-0.2,0.2-0.2,0.3s0.1,0.3,0.2,0.3l6.6,3.2
	c0.1,0.1,0.3,0,0.4,0l6.4-4.7l-5,5.1c-0.1,0.1-0.1,0.2-0.1,0.3l0.5,6.5c0,0.1,0.1,0.3,0.2,0.3c0,0,0.1,0,0.1,0c0.1,0,0.2,0,0.3-0.1
	l3.5-4l4.3,2c0.1,0,0.2,0,0.3,0c0.1,0,0.2-0.1,0.2-0.2l6.1-19.2C276.4,641.7,276.4,641.6,276.3,641.5L276.3,641.5z"/>
<g>
	<path fill="#57F9FF" d="M113.7,608l-8.6,7c0,0,0,0,0,0c0,0,0,0,0,0v7.1c0,0.3,0.1,0.5,0.3,0.7c0.2,0.2,0.4,0.3,0.7,0.3h5.7v-5.7
		h3.8v5.7h5.7c0.3,0,0.5-0.1,0.7-0.3c0.2-0.2,0.3-0.4,0.3-0.7v-7.1c0,0,0-0.1,0-0.1L113.7,608z"/>
	<path fill="#57F9FF" d="M125.6,613.4l-3.3-2.7v-6c0-0.1,0-0.3-0.1-0.3c-0.1-0.1-0.2-0.1-0.3-0.1H119c-0.1,0-0.3,0-0.3,0.1
		c-0.1,0.1-0.1,0.2-0.1,0.3v2.9l-3.6-3c-0.3-0.3-0.7-0.4-1.1-0.4c-0.4,0-0.8,0.1-1.1,0.4l-10.7,8.9c-0.1,0.1-0.2,0.2-0.2,0.3
		c0,0.1,0,0.2,0.1,0.3l0.9,1.1c0.1,0.1,0.2,0.1,0.3,0.2c0.1,0,0.2,0,0.4-0.1l10.3-8.5l10.3,8.5c0.1,0.1,0.2,0.1,0.3,0.1h0
		c0.1,0,0.2-0.1,0.3-0.2l0.9-1.1c0.1-0.1,0.1-0.2,0.1-0.3C125.7,613.6,125.7,613.5,125.6,613.4z"/>
</g>
<g>
	<path fill="#57F9FF" d="M125,727.9h-2.8c-0.4,0-0.8,0.3-0.8,0.8c0,0.4,0.3,0.8,0.8,0.8h2.8c0.4,0,0.8-0.3,0.8-0.8
		C125.7,728.3,125.4,727.9,125,727.9L125,727.9z"/>
	<path fill="#57F9FF" d="M121,726.2c0.1,0,0.2,0,0.3-0.1l3.3-1.7c0.4-0.2,0.5-0.7,0.3-1c-0.2-0.4-0.6-0.5-1-0.3l-3.3,1.7
		c-0.4,0.2-0.5,0.7-0.3,1C120.4,726,120.7,726.2,121,726.2L121,726.2z"/>
	<path fill="#57F9FF" d="M102.5,724.9c-0.4,0-0.8,0.3-0.8,0.8v6c0,0.4,0.3,0.8,0.8,0.8c0.4,0,0.8-0.3,0.8-0.8v-6
		C103.3,725.3,102.9,724.9,102.5,724.9L102.5,724.9z M102.5,724.9"/>
	<path fill="#57F9FF" d="M118.7,720.5h-3.2c-0.4,0-0.8,0.3-0.8,0.8v0.7l-10.2,3.1c-0.3,0.1-0.5,0.4-0.5,0.7v6c0,0,0,0.1,0,0.1
		c0,0,0,0,0,0c0,0,0,0.1,0,0.1l2.2,7c0.1,0.3,0.4,0.5,0.7,0.5c0.1,0,0.2,0,0.2,0l3.1-1c0.2-0.1,0.4-0.2,0.4-0.4
		c0.1-0.2,0.1-0.4,0.1-0.6l-1.1-3.5l5,1.5v0.7c0,0.4,0.3,0.8,0.8,0.8h3.2c0.4,0,0.8-0.3,0.8-0.8v-15
		C119.4,720.8,119.1,720.5,118.7,720.5L118.7,720.5z M109.1,737.2l-1.7,0.5l-1.5-4.9l2,0.6L109.1,737.2z M108.8,732.1
		C108.8,732.1,108.8,732.1,108.8,732.1l-3.3-1v-4.9l9.2-2.8v10.4L108.8,732.1z M117.9,735.4h-1.6V722h1.6V735.4z M117.9,735.4"/>
	<path fill="#57F9FF" d="M124.6,733l-3.3-1.7c-0.4-0.2-0.8,0-1,0.3c-0.2,0.4,0,0.8,0.3,1l3.3,1.7c0.1,0.1,0.2,0.1,0.3,0.1
		c0.3,0,0.5-0.2,0.7-0.4C125.1,733.7,125,733.2,124.6,733L124.6,733z M124.6,733"/>
</g>
<g>
	<path fill="#57F9FF" d="M113.7,703.2c1.3,0,2.3-1.1,2.3-2.4h-4.7C111.4,702.1,112.5,703.2,113.7,703.2L113.7,703.2z M121.6,696.2
		c-0.2-0.2-0.2-0.4-0.2-0.6v-6.2c0-3.7-2.5-6.7-5.9-7.6v-0.7c0-0.7-0.4-1.4-1-1.7c-1.2-0.6-2.5,0.4-2.5,1.6v0.8
		c-3.4,0.8-5.9,3.8-5.9,7.6v6.2c0,0.2-0.1,0.4-0.2,0.6l-1.9,1.9c-0.2,0.2-0.2,0.4-0.2,0.6l0,0c0,0.5,0.4,0.8,0.8,0.8h18.3
		c0.5,0,0.8-0.4,0.8-0.8l0,0c0-0.2-0.1-0.4-0.2-0.6L121.6,696.2z M121.4,696"/>
</g>
<g>
	<path fill="none" stroke="#FFFFFF" stroke-width="1.5487" stroke-miterlimit="10" d="M110.1,408.1c0,2,1.6,3.7,3.7,3.7l0,0
		c2,0,3.6-1.7,3.6-3.7 M126,402.2c-0.2-0.2-0.4-0.6-0.4-0.9v-9.7c0-5.8-3.8-10.4-9.1-11.7v-1.1c0-1.1-0.6-2.1-1.5-2.7
		c-1.9-1-3.9,0.6-3.9,2.5v1.3c-5.3,1.3-9.1,5.9-9.1,11.7v9.7c0,0.3-0.1,0.7-0.4,0.9l-2.9,2.9c-0.2,0.2-0.4,0.6-0.4,0.9l0,0
		c0,0.7,0.6,1.3,1.3,1.3H128c0.7,0,1.3-0.6,1.3-1.3l0,0c0-0.3-0.1-0.7-0.4-0.9L126,402.2z M125.6,401.8"/>
</g>
<g>
	<g>
		<path fill="#FFFFFF" d="M204.1,411.8H174c-1.6,0-3-1.3-3-3v-6.7c0-0.7,0.6-1.3,1.3-1.3s1.3,0.6,1.3,1.3v5.9c0,0.7,0.5,1.2,1.2,1.2
			h28.6c0.7,0,1.2-0.5,1.2-1.2v-5.9c0-0.7,0.6-1.3,1.3-1.3s1.3,0.6,1.3,1.3v6.7C207.1,410.5,205.7,411.8,204.1,411.8z"/>
	</g>
	<path fill="#FFFFFF" d="M198.5,384.1l-8.1-8c0,0,0,0,0,0c-0.1-0.1-0.2-0.2-0.4-0.2c0,0,0,0,0,0c0,0,0,0-0.1,0
		c-0.1,0-0.2-0.1-0.4-0.1c0,0-0.1,0-0.1,0c-0.1,0-0.2,0-0.3,0.1c0,0-0.1,0-0.1,0c-0.1,0.1-0.3,0.1-0.4,0.2l-8.7,8.5
		c-0.5,0.5-0.5,1.3,0,1.8c0.5,0.5,1.3,0.5,1.8,0l6.5-6.4v22.1c0,0.7,0.8,1.3,1.5,1.3s1.5-0.6,1.5-1.3v-22.1l5.7,5.9
		c0.2,0.2,0.4,0.4,0.8,0.4c0.3,0,0.6-0.1,0.8-0.4C199,385.4,199,384.6,198.5,384.1z"/>
</g>
<g>
	<path fill="#FFFFFF" d="M110.1,584.7l-8.3-8.3c-0.1-0.1-0.1-0.3,0-0.5l2.1-2.1c0.1-0.1,0.3-0.1,0.5,0l5.8,5.8l12.7-14.7
		c0.1-0.1,0.3-0.1,0.5,0l2.3,2c0.1,0.1,0.1,0.3,0,0.5l-15,17.3C110.5,584.9,110.3,584.9,110.1,584.7z"/>
</g>
<g>
	<path fill="#FFFFFF" d="M58.2,129.5c-0.4,0-0.8-0.1-1.1-0.4l-10-10c-0.6-0.6-0.6-1.5,0-2.1l10-10c0.6-0.6,1.5-0.6,2.1,0
		s0.6,1.5,0,2.1l-8.9,8.9l8.9,8.9c0.6,0.6,0.6,1.5,0,2.1C59,129.4,58.6,129.5,58.2,129.5z"/>
</g>
<g>
	<path fill="#FFFFFF" d="M86.2,106.5c0.4,0,0.8,0.1,1.1,0.4l10,10c0.6,0.6,0.6,1.5,0,2.1l-10,10c-0.6,0.6-1.5,0.6-2.1,0
		s-0.6-1.5,0-2.1l8.9-8.9l-8.9-8.9c-0.6-0.6-0.6-1.5,0-2.1C85.4,106.6,85.8,106.5,86.2,106.5z"/>
</g>
<path fill="#FFFFFF" d="M98.4,250.2V155H46v95.2h-4.8v4.8h62v-4.8H98.4z M94.6,240.1H49.8v-79.5h44.8V240.1z"/>
<text transform="matrix(1 0 0 1 17.2114 42.114)"><tspan x="0" y="0" fill="#FFFFFF" font-family="'Play-Bold'" font-size="24">Tractive</tspan><tspan x="0" y="21.6" fill="#FFFFFF" font-family="'Play'" font-size="18">CMS Dashboard icon set</tspan></text>
<polyline fill="none" stroke="#FFFFFF" stroke-width="2" stroke-linecap="round" stroke-linejoin="round" stroke-miterlimit="10" points="
	157.2,115 147.2,125 137.2,115 "/>
</svg>
